<svg height="512" viewBox="0 0 64 64" width="512" xmlns="http://www.w3.org/2000/svg"><g id="tesla-eco-ecology-electric-coil"><path d="m61 61h-26l2-4h22z" fill="#c0ab91"/><path d="m29 61h-26l2-4h22z" fill="#c0ab91"/><path d="m61 61h-3l-2-4h3z" fill="#a78966"/><path d="m60 41a2.006 2.006 0 0 1 -2 2h-20a2.015 2.015 0 0 1 -2-2 2.006 2.006 0 0 1 2-2h20a2.015 2.015 0 0 1 2 2z" fill="#ffde55"/><path d="m60 41a2.006 2.006 0 0 1 -2 2h-3a2.006 2.006 0 0 0 2-2 2.015 2.015 0 0 0 -2-2h3a2.015 2.015 0 0 1 2 2z" fill="#ebbf00"/><path d="m56 31a2.006 2.006 0 0 1 -2 2h-12a2.015 2.015 0 0 1 -2-2 2.006 2.006 0 0 1 2-2h12a2.015 2.015 0 0 1 2 2z" fill="#ffde55"/><path d="m54 21a2.006 2.006 0 0 1 -2 2h-8a2.015 2.015 0 0 1 -2-2 2.006 2.006 0 0 1 2-2h8a2.015 2.015 0 0 1 2 2z" fill="#ffde55"/><path d="m54 53a4 4 0 0 1 -4 4h-4a4 4 0 0 1 0-8h4a3.995 3.995 0 0 1 4 4z" fill="#ff3051"/><path d="m46 43h4v6h-4z" fill="#e0e0e2"/><path d="m46 33h4v6h-4z" fill="#e0e0e2"/><path d="m46 23h4v6h-4z" fill="#e0e0e2"/><path d="m50 10.46v8.54h-4v-8.54a3.974 3.974 0 0 0 4 0z" fill="#e0e0e2"/><path d="m36 23-4 9v-6h-4l4-8v5z" fill="#ffde55"/><path d="m29 61h-3l-2-4h3z" fill="#a78966"/><path d="m28 41a2.015 2.015 0 0 1 -2 2h-20a2.006 2.006 0 0 1 -2-2 2.015 2.015 0 0 1 2-2h20a2.006 2.006 0 0 1 2 2z" fill="#ffde55"/><path d="m24 31a2.015 2.015 0 0 1 -2 2h-12a2.006 2.006 0 0 1 -2-2 2.015 2.015 0 0 1 2-2h12a2.006 2.006 0 0 1 2 2z" fill="#ffde55"/><path d="m22 21a2.015 2.015 0 0 1 -2 2h-8a2.006 2.006 0 0 1 -2-2 2.015 2.015 0 0 1 2-2h8a2.006 2.006 0 0 1 2 2z" fill="#ffde55"/><path d="m22 53a3.995 3.995 0 0 1 -4 4h-4a4 4 0 1 1 0-8h4a4 4 0 0 1 4 4z" fill="#ff3051"/><path d="m54 55a4 4 0 0 1 -4 4h-4a3.995 3.995 0 0 1 -4-4 3.657 3.657 0 0 1 .13-1 4.078 4.078 0 0 0 1.04 1.83 4.025 4.025 0 0 0 2.83 1.17h4a3.992 3.992 0 0 0 3.87-3 3.657 3.657 0 0 1 .13 1z" fill="#a78966"/><path d="m22 55a3.995 3.995 0 0 1 -4 4h-4a4 4 0 0 1 -4-4 3.657 3.657 0 0 1 .13-1 3.992 3.992 0 0 0 3.87 3h4a4.025 4.025 0 0 0 2.83-1.17 4.078 4.078 0 0 0 1.04-1.83 3.657 3.657 0 0 1 .13 1z" fill="#a78966"/><path d="m54 53a4 4 0 0 1 -4 4h-3a4 4 0 1 0 0-8h3a3.995 3.995 0 0 1 4 4z" fill="#cd2a00"/><path d="m22 53a3.995 3.995 0 0 1 -4 4h-3a4 4 0 0 0 0-8h3a4 4 0 0 1 4 4z" fill="#cd2a00"/><path d="m14 43h4v6h-4z" fill="#e0e0e2"/><path d="m14 33h4v6h-4z" fill="#e0e0e2"/><path d="m14 23h4v6h-4z" fill="#e0e0e2"/><path d="m18 10.46v8.54h-4v-8.54a3.974 3.974 0 0 0 4 0z" fill="#e0e0e2"/><g fill="#ebbf00"><path d="m56 31a2.006 2.006 0 0 1 -2 2h-3a2.006 2.006 0 0 0 2-2 2.015 2.015 0 0 0 -2-2h3a2.015 2.015 0 0 1 2 2z"/><path d="m54 21a2.006 2.006 0 0 1 -2 2h-3a2.006 2.006 0 0 0 2-2 2.015 2.015 0 0 0 -2-2h3a2.015 2.015 0 0 1 2 2z"/><path d="m28 41a2.006 2.006 0 0 1 -2 2h-3a2.006 2.006 0 0 0 2-2 2.015 2.015 0 0 0 -2-2h3a2.015 2.015 0 0 1 2 2z"/><path d="m24 31a2.006 2.006 0 0 1 -2 2h-3a2.006 2.006 0 0 0 2-2 2.015 2.015 0 0 0 -2-2h3a2.015 2.015 0 0 1 2 2z"/><path d="m22 21a2.006 2.006 0 0 1 -2 2h-3a2.006 2.006 0 0 0 2-2 2.015 2.015 0 0 0 -2-2h3a2.015 2.015 0 0 1 2 2z"/></g><circle cx="48" cy="7" fill="#ff3051" r="4"/><circle cx="16" cy="7" fill="#ff3051" r="4"/><g fill="#acabb1"><path d="m46 11h4v2h-4z"/><path d="m14 11h4v2h-4z"/><path d="m46 23h4v2h-4z"/><path d="m14 23h4v2h-4z"/><path d="m46 33h4v2h-4z"/><path d="m14 33h4v2h-4z"/><path d="m46 43h4v2h-4z"/><path d="m14 43h4v2h-4z"/></g><path d="m29.89 60.55-2-4a.988.988 0 0 0 -.89-.55h-5.03a4.924 4.924 0 0 0 1.03-3 5.017 5.017 0 0 0 -4-4.9v-4.1h7a3 3 0 0 0 0-6h-7v-4h3a3 3 0 0 0 0-6h-3v-4h1a3 3 0 0 0 0-6h-1v-7.03a4.952 4.952 0 0 0 2-3.97 5 5 0 0 0 -10 0 4.952 4.952 0 0 0 2 3.97v7.03h-1a3 3 0 0 0 0 6h1v4h-3a3 3 0 0 0 0 6h3v4h-7a3 3 0 0 0 0 6h7v4.1a5.017 5.017 0 0 0 -4 4.9 4.924 4.924 0 0 0 1.03 3h-5.03a.988.988 0 0 0 -.89.55l-2 4a1 1 0 0 0 .89 1.45h26a1 1 0 0 0 .89-1.45zm-13.89-56.55a3 3 0 1 1 -3 3 3.009 3.009 0 0 1 3-3zm1 7.9v6.1h-2v-6.1a5.05 5.05 0 0 0 2 0zm-5 10.1a1 1 0 0 1 0-2h8a1 1 0 0 1 0 2zm5 2v4h-2v-4zm-7 8a1 1 0 0 1 0-2h12a1 1 0 0 1 0 2zm7 2v4h-2v-4zm-11 8a1 1 0 0 1 0-2h20a1 1 0 0 1 0 2zm11 2v4h-2v-4zm-3 6h4a3 3 0 0 1 0 6h-4a3 3 0 0 1 0-6zm-9.38 10 1-2h20.76l1 2z"/><path d="m27.97 7.242.168-.668 1.914 5.742a1 1 0 0 0 .906.683h.042a1 1 0 0 0 .919-.606l2.229-5.2 1.995 3.324a.976.976 0 0 0 .895.484 1 1 0 0 0 .857-.552l1.723-3.449h1.382v-2h-2a1 1 0 0 0 -.9.553l-1.18 2.371-2.063-3.439a1.029 1.029 0 0 0 -.924-.485 1 1 0 0 0 -.852.6l-1.964 4.588-2.169-6.5a.989.989 0 0 0 -.986-.688 1 1 0 0 0 -.932.757l-.811 3.243h-3.219v2h4a1 1 0 0 0 .97-.758z"/><path d="m15 52h2v2h-2z"/><path d="m15 6h2v2h-2z"/><path d="m61.89 60.55-2-4a.988.988 0 0 0 -.89-.55h-5.03a4.924 4.924 0 0 0 1.03-3 5.017 5.017 0 0 0 -4-4.9v-4.1h7a3 3 0 0 0 0-6h-7v-4h3a3 3 0 0 0 0-6h-3v-4h1a3 3 0 0 0 0-6h-1v-7.03a4.952 4.952 0 0 0 2-3.97 5 5 0 0 0 -10 0 4.952 4.952 0 0 0 2 3.97v7.03h-1a3 3 0 0 0 0 6h1v4h-3a3 3 0 0 0 0 6h3v4h-7a3 3 0 0 0 0 6h7v4.1a5.017 5.017 0 0 0 -4 4.9 4.924 4.924 0 0 0 1.03 3h-5.03a.988.988 0 0 0 -.89.55l-2 4a1 1 0 0 0 .89 1.45h26a1 1 0 0 0 .89-1.45zm-13.89-56.55a3 3 0 1 1 -3 3 3.009 3.009 0 0 1 3-3zm1 7.9v6.1h-2v-6.1a5.05 5.05 0 0 0 2 0zm-5 10.1a1 1 0 0 1 0-2h8a1 1 0 0 1 0 2zm5 2v4h-2v-4zm-7 8a1 1 0 0 1 0-2h12a1 1 0 0 1 0 2zm7 2v4h-2v-4zm-11 8a1 1 0 0 1 0-2h20a1 1 0 0 1 0 2zm11 2v4h-2v-4zm-3 6h4a3 3 0 0 1 0 6h-4a3 3 0 0 1 0-6zm-9.38 10 1-2h20.76l1 2z"/><path d="m47 52h2v2h-2z"/><path d="m47 6h2v2h-2z"/><path d="m36.839 22.455a1 1 0 0 0 -.839-.455h-3v-4a1 1 0 0 0 -1.895-.447l-4 8a1 1 0 0 0 .895 1.447h3v5a1 1 0 0 0 .792.979 1.064 1.064 0 0 0 .208.021 1 1 0 0 0 .914-.594l4-9a1 1 0 0 0 -.075-.951zm-3.839 4.833v-1.288a1 1 0 0 0 -1-1h-2.382l1.382-2.764v.764a1 1 0 0 0 1 1h2.461z"/></g></svg>